<svg width="34" height="34" viewBox="0 0 34 34" fill="none" xmlns="http://www.w3.org/2000/svg">
<path d="M16.9997 0.333313C19.2098 0.333313 21.3294 1.21129 22.8922 2.77409C24.455 4.33689 25.333 6.45651 25.333 8.66665C25.333 10.8768 24.455 12.9964 22.8922 14.5592C21.3294 16.122 19.2098 17 16.9997 17C14.7895 17 12.6699 16.122 11.1071 14.5592C9.54432 12.9964 8.66634 10.8768 8.66634 8.66665C8.66634 6.45651 9.54432 4.33689 11.1071 2.77409C12.6699 1.21129 14.7895 0.333313 16.9997 0.333313M16.9997 21.1666C26.208 21.1666 33.6663 24.8958 33.6663 29.5V33.6666H0.333008V29.5C0.333008 24.8958 7.79134 21.1666 16.9997 21.1666Z" fill="#2A3990" fill-opacity="0.5"/>
</svg>
